<svg width="18" height="20" fill="none" xmlns="http://www.w3.org/2000/svg"><path d="M16.133 6.858l-.748.053.748-.053zM3.863 5.75h10.275v-1.5H3.862v1.5zm11.522 1.16l.714 10 1.496-.106-.714-10-1.496.107zm-.533 11.34H3.148v1.5h11.704v-1.5zm-12.95-1.34l.713-10-1.496-.106-.714 10 1.496.107zm1.246 1.34A1.25 1.25 0 011.9 16.91l-1.496-.106a2.75 2.75 0 002.743 2.946v-1.5zm12.95-1.34a1.25 1.25 0 01-1.246 1.34v1.5a2.75 2.75 0 002.743-2.946l-1.496.107zm-1.96-11.16c.656 0 1.2.507 1.247 1.16l1.496-.106a2.75 2.75 0 00-2.743-2.554v1.5zM3.862 4.25A2.75 2.75 0 001.12 6.804l1.496.107A1.25 1.25 0 013.862 5.75v-1.5z" fill="#242424"></path><path d="M6 3a2 2 0 012-2h2a2 2 0 012 2v2H6V3z" stroke="#242424" stroke-width="1.5"></path></svg>