<svg viewBox="0 0 218 96" xmlns="http://www.w3.org/2000/svg"><g fill="#232424"><path d="M108.2 38.8c2.3 0 4.6.9 6.2 2.6 1.7 1.8 2.7 4.2 2.6 6.7.1 2.5-.8 4.9-2.6 6.7-3.5 3.5-9.1 3.5-12.6.1V63h-3.7V39.3h3.7v2c1.6-1.7 4-2.6 6.4-2.5zm-.6 15.4c1.5 0 3-.6 4.1-1.7 1.1-1.2 1.7-2.8 1.6-4.4.1-1.6-.5-3.2-1.6-4.4-1.1-1.1-2.6-1.7-4.1-1.7s-3 .6-4.1 1.7c-2.3 2.4-2.3 6.3 0 8.7 1.1 1.2 2.5 1.8 4.1 1.8zM130.1 39.1c.4 0 .8 0 1.2.2l-.3 3.6h-1c-1.9-.1-3.8.7-5 2.1-1.2 1.7-1.8 3.8-1.7 5.9V57h-3.7V39.3h3.7V43c1.3-2.4 3.9-4 6.8-3.9zM134.9 41.5c1.8-1.7 4.2-2.6 6.8-2.6 2.5-.1 4.9.9 6.7 2.6s2.8 4.1 2.7 6.6c.1 2.5-.9 4.9-2.7 6.7-1.8 1.7-4.2 2.7-6.7 2.6-2.5.1-4.9-.9-6.8-2.6-1.8-1.7-2.8-4.1-2.8-6.7-.1-2.5.9-4.9 2.8-6.6zm6.7 12.7c1.5 0 3-.6 4.1-1.7 2.3-2.4 2.3-6.3 0-8.7-2.3-2.3-6-2.3-8.2 0-2.3 2.4-2.3 6.3 0 8.7 1.1 1.1 2.6 1.7 4.1 1.7zM163.9 38.8c2.3 0 4.6.9 6.2 2.6 1.7 1.8 2.7 4.2 2.6 6.7.1 2.5-.8 4.9-2.6 6.7-3.5 3.5-9.1 3.5-12.6.1V63h-3.7V39.3h3.7v2c1.7-1.7 4-2.6 6.4-2.5zm-.6 15.4c1.5 0 3-.6 4.1-1.7 1.1-1.2 1.7-2.8 1.6-4.4.1-1.6-.5-3.2-1.6-4.4-1.1-1.1-2.6-1.7-4.1-1.7s-3 .6-4.1 1.7c-2.3 2.4-2.3 6.3 0 8.7 1.1 1.2 2.6 1.8 4.1 1.8zM192.5 47.7V49h-14.3c.1 1.4.7 2.8 1.8 3.8 1 .9 2.2 1.4 3.6 1.4 2.2.1 4.3-1.1 5.2-3.1l3.3.7c-.6 1.7-1.8 3.1-3.3 4.1-1.6 1-3.4 1.4-5.2 1.4-2.4 0-4.7-.9-6.4-2.6-1.8-1.8-2.7-4.2-2.6-6.7-.1-2.5.9-5 2.6-6.8 1.7-1.7 4.1-2.7 6.5-2.6 2.3 0 4.5.9 6.1 2.5 1.8 1.9 2.7 4.2 2.7 6.6zm-8.8-5.6c-1.2 0-2.4.4-3.4 1.1-1.1.8-1.8 1.9-2 3.2h10.4c-.2-1.2-.8-2.4-1.8-3.2-.9-.8-2-1.2-3.2-1.1zM199 56.9h-3.7V31.3h3.7zM59.5 19.8c-2 0-3.6 8.1-4.2 19.3-.9-12.1-3.4-21-6.3-21s-5.4 8.7-6.3 20.8c-.6-11-2.2-19-4.2-19C36 19.8 34 32.5 34 48s2 28.2 4.5 28.2c1.9 0 3.6-7.9 4.2-19C43.5 69.3 46 78 49 78s5.5-8.9 6.3-21.1c.6 11.2 2.2 19.3 4.2 19.3C62 76.2 64 63.6 64 48s-2.1-28.2-4.5-28.2zM69.1 26.1c-1.7 0-3.1 9.8-3.1 21.9s1.4 21.9 3.1 21.9 3.1-9.8 3.1-21.9-1.4-21.9-3.1-21.9z"></path><ellipse cx="77.1" cy="48" rx="1.9" ry="10.2"></ellipse><path d="M20.9 37.8c-1 0-1.9 4.6-1.9 10.2s.8 10.2 1.9 10.2 1.9-4.5 1.9-10.2-.9-10.2-1.9-10.2zM28.9 26.1c-1.7 0-3.1 9.8-3.1 21.9s1.4 21.9 3.1 21.9S32 60.1 32 48s-1.4-21.9-3.1-21.9z"></path></g></svg>