<svg viewBox="0 0 94 22" fill="none" xmlns="http://www.w3.org/2000/svg"><path d="M84.66 0l-7.034 10.559h2.73l1.26-1.941h5.433l-1.35-2.085-2.717.003 2.593-4.016 5.114 8.039h2.757L86.457 0H84.66zM.344 10.559v-1.92h9.388c.691 0 .97-.12.97-.63V6.495c0-.485-.284-.645-.97-.645h-6.3C.945 5.85 0 4.815 0 3.286V2.56C0 1.035.945 0 3.42 0h9.133v1.905H3.42c-.644 0-.969.165-.969.644v.752c0 .448.284.644.97.644h6.312c2.475 0 3.42 1.035 3.42 2.564v1.469c0 1.531-.945 2.58-3.42 2.58H.344zM35.408 0h-2.445v10.559h2.445V0zM38.84 0v10.559h11.128v-1.92h-8.683v-2.7h8.218V4.02h-8.218V1.905h8.683V0H38.84zM52.428 0v1.905h4.79v8.654h2.458V1.905h4.672V0h-11.92zM66.847 0v1.905h4.791v8.654h2.46V1.905h4.672V0H66.847zM21.716 0l-7.035 10.559h2.729l1.26-1.941h5.436l-1.353-2.085-2.716.003L22.63 2.52l5.113 8.039h2.76L23.514 0h-1.798zM22.492 21.747H.352v-8.005h27.357l-5.217 8.005zM30.396 13.75h63.038v8.002H25.143l5.253-8.002z" fill="#242424"></path><path d="M54.376 16.816v.826h1.042v.427h-1.042v.834h1.321v.443h-1.878v-2.971h1.878v.441h-1.32zM58.263 18.903v.458H56.52v-2.986h.552v2.528h1.192zM59.543 16.816v.826h1.042v.427h-1.042v.834h1.323v.443h-1.878v-2.971h1.878v.441h-1.323zM63.668 18.659a.104.104 0 01.08.036l.218.243c-.118.15-.271.268-.446.344-.2.085-.417.126-.635.12a1.514 1.514 0 01-.596-.113 1.335 1.335 0 01-.453-.315 1.391 1.391 0 01-.286-.485 1.772 1.772 0 01-.1-.61c-.003-.21.033-.42.107-.616.066-.18.169-.345.3-.485.133-.134.291-.24.466-.312.19-.078.393-.117.598-.114a1.44 1.44 0 01.577.109c.158.06.303.148.43.26l-.192.263a.186.186 0 01-.044.044.12.12 0 01-.07.02.123.123 0 01-.063-.018l-.073-.043-.092-.058a.789.789 0 00-.119-.056 1.044 1.044 0 00-.363-.06.939.939 0 00-.366.07.811.811 0 00-.286.206.948.948 0 00-.184.33c-.047.143-.07.294-.068.445-.003.152.022.303.072.446a.97.97 0 00.192.33.877.877 0 00.642.276c.068.004.136.004.204 0 .057-.009.114-.022.17-.039a.803.803 0 00.283-.174.137.137 0 01.044-.03.099.099 0 01.053-.014zM66.757 16.83h-.899v2.523h-.552v-2.522h-.9v-.456h2.351v.456zM69.794 19.354h-.485a.218.218 0 01-.206-.112l-.627-.952a.2.2 0 00-.078-.078.269.269 0 00-.124-.022h-.242v1.164h-.552v-2.979h.906c.176-.003.35.018.52.063.13.033.252.094.357.177.09.071.16.164.206.27.045.11.067.229.066.348a.86.86 0 01-.172.526.823.823 0 01-.207.192 1.02 1.02 0 01-.278.13c.035.02.068.045.097.073.032.03.06.063.082.1l.737 1.1zm-1.425-1.561a.923.923 0 00.274-.039.543.543 0 00.191-.109.45.45 0 00.112-.165.566.566 0 00.036-.206.422.422 0 00-.148-.349.727.727 0 00-.458-.12h-.354v.988h.347zM71.006 19.353h-.555v-2.978h.555v2.978zM74.054 18.66a.11.11 0 01.08.036l.218.242a1.17 1.17 0 01-.439.327 1.53 1.53 0 01-.635.121 1.494 1.494 0 01-.596-.114 1.336 1.336 0 01-.453-.315 1.399 1.399 0 01-.288-.484 1.834 1.834 0 01-.1-.611c-.002-.21.034-.418.107-.615a1.356 1.356 0 01.754-.793 1.53 1.53 0 01.596-.114c.198-.004.394.033.577.11.162.061.31.153.438.27l-.186.258a.124.124 0 01-.114.063.131.131 0 01-.063-.018l-.073-.043-.09-.058a.911.911 0 00-.484-.117.948.948 0 00-.366.07.8.8 0 00-.284.207.95.95 0 00-.186.33 1.402 1.402 0 00-.066.445c-.002.152.022.303.07.446a.97.97 0 00.194.33.865.865 0 00.64.276c.069.004.138.004.206 0a.794.794 0 00.45-.213.224.224 0 01.044-.03.111.111 0 01.049-.007zM79.04 17.866c.001.205-.036.409-.11.6a1.351 1.351 0 01-.793.778 1.695 1.695 0 01-.617.11h-1.137v-2.979h1.137c.21-.002.42.035.618.11.18.068.346.172.484.307.134.134.239.294.308.47.075.192.112.397.11.604zm-.57 0c.002-.15-.02-.299-.066-.442a.893.893 0 00-.186-.33.813.813 0 00-.296-.205 1.011 1.011 0 00-.392-.073h-.58v2.087h.58c.134.002.267-.023.392-.073a.813.813 0 00.296-.206.893.893 0 00.186-.33c.045-.138.067-.283.066-.428zM82.182 19.354h-.501a.218.218 0 01-.206-.112l-.625-.952a.243.243 0 00-.078-.078.28.28 0 00-.124-.022h-.242v1.164h-.555v-2.979h.909a1.94 1.94 0 01.52.063c.13.034.252.095.357.177.09.072.16.164.204.27.044.11.067.229.065.348a.913.913 0 01-.044.284.823.823 0 01-.334.434.987.987 0 01-.279.13.482.482 0 01.182.172l.751 1.1zm-1.425-1.561a.9.9 0 00.272-.039.523.523 0 00.191-.109.457.457 0 00.114-.165.566.566 0 00.037-.206.422.422 0 00-.15-.349.727.727 0 00-.456-.12h-.354v.988h.346zM83.391 19.353h-.557v-2.978h.557v2.978zM86.937 16.375l-1.212 2.979h-.502l-1.211-2.979h.446a.193.193 0 01.116.034.199.199 0 01.068.092l.703 1.818a4.035 4.035 0 01.128.414 2.74 2.74 0 01.116-.414l.698-1.818a.219.219 0 01.066-.087.18.18 0 01.119-.039h.465zM88.132 16.816v.826h1.049v.427h-1.042v.834h1.323v.443h-1.878v-2.971h1.878v.441h-1.33z" fill="#fff"></path></svg>