<svg width="128" height="16" viewBox="0 0 128 16" fill="none" xmlns="http://www.w3.org/2000/svg">
<path d="M12.9781 2.36403L8.49611 15H4.64411L0.162109 2.36403H3.43811L6.57011 11.904L9.72011 2.36403H12.9781Z" fill="#F8F9FA"/>
<path d="M17.3425 4.83003V7.38603H21.4645V9.76203H17.3425V12.534H22.0045V15H14.2645V2.36403H22.0045V4.83003H17.3425Z" fill="#F8F9FA"/>
<path d="M35.3068 15H32.2288L27.0808 7.20603V15H24.0028V2.36403H27.0808L32.2288 10.194V2.36403H35.3068V15Z" fill="#F8F9FA"/>
<path d="M37.016 8.66403C37.016 7.41603 37.286 6.30603 37.826 5.33403C38.366 4.35003 39.116 3.58803 40.076 3.04803C41.048 2.49603 42.146 2.22003 43.37 2.22003C44.87 2.22003 46.154 2.61603 47.222 3.40803C48.29 4.20003 49.004 5.28003 49.364 6.64803H45.98C45.728 6.12003 45.368 5.71803 44.9 5.44203C44.444 5.16603 43.922 5.02803 43.334 5.02803C42.386 5.02803 41.618 5.35803 41.03 6.01803C40.442 6.67803 40.148 7.56003 40.148 8.66403C40.148 9.76803 40.442 10.65 41.03 11.31C41.618 11.97 42.386 12.3 43.334 12.3C43.922 12.3 44.444 12.162 44.9 11.886C45.368 11.61 45.728 11.208 45.98 10.68H49.364C49.004 12.048 48.29 13.128 47.222 13.92C46.154 14.7 44.87 15.09 43.37 15.09C42.146 15.09 41.048 14.82 40.076 14.28C39.116 13.728 38.366 12.966 37.826 11.994C37.286 11.022 37.016 9.91203 37.016 8.66403Z" fill="#F8F9FA"/>
<path d="M54.3269 4.83003V7.38603H58.4489V9.76203H54.3269V12.534H58.9889V15H51.2489V2.36403H58.9889V4.83003H54.3269Z" fill="#F8F9FA"/>
<path d="M69.3737 15.126C68.4497 15.126 67.6217 14.976 66.8897 14.676C66.1577 14.376 65.5697 13.932 65.1257 13.344C64.6937 12.756 64.4657 12.048 64.4417 11.22H67.7177C67.7657 11.688 67.9277 12.048 68.2037 12.3C68.4797 12.54 68.8397 12.66 69.2837 12.66C69.7397 12.66 70.0997 12.558 70.3637 12.354C70.6277 12.138 70.7597 11.844 70.7597 11.472C70.7597 11.16 70.6517 10.902 70.4357 10.698C70.2317 10.494 69.9737 10.326 69.6617 10.194C69.3617 10.062 68.9297 9.91203 68.3657 9.74403C67.5497 9.49203 66.8837 9.24003 66.3677 8.98803C65.8517 8.73603 65.4077 8.36403 65.0357 7.87203C64.6637 7.38003 64.4777 6.73803 64.4777 5.94603C64.4777 4.77003 64.9037 3.85203 65.7557 3.19203C66.6077 2.52003 67.7177 2.18403 69.0857 2.18403C70.4777 2.18403 71.5997 2.52003 72.4517 3.19203C73.3037 3.85203 73.7597 4.77603 73.8197 5.96403H70.4897C70.4657 5.55603 70.3157 5.23803 70.0397 5.01003C69.7637 4.77003 69.4097 4.65003 68.9777 4.65003C68.6057 4.65003 68.3057 4.75203 68.0777 4.95603C67.8497 5.14803 67.7357 5.43003 67.7357 5.80203C67.7357 6.21003 67.9277 6.52803 68.3117 6.75603C68.6957 6.98403 69.2957 7.23003 70.1117 7.49403C70.9277 7.77003 71.5877 8.03403 72.0917 8.28603C72.6077 8.53803 73.0517 8.90403 73.4237 9.38403C73.7957 9.86403 73.9817 10.482 73.9817 11.238C73.9817 11.958 73.7957 12.612 73.4237 13.2C73.0637 13.788 72.5357 14.256 71.8397 14.604C71.1437 14.952 70.3217 15.126 69.3737 15.126Z" fill="#F8F9FA"/>
<path d="M81.4739 12.39V15H79.9079C78.7919 15 77.9219 14.73 77.2979 14.19C76.6739 13.638 76.3619 12.744 76.3619 11.508V7.51203H75.1379V4.95603H76.3619V2.50803H79.4399V4.95603H81.4559V7.51203H79.4399V11.544C79.4399 11.844 79.5119 12.06 79.6559 12.192C79.7999 12.324 80.0399 12.39 80.3759 12.39H81.4739Z" fill="#F8F9FA"/>
<path d="M93.1064 4.95603V15H90.0284V13.632C89.7164 14.076 89.2904 14.436 88.7504 14.712C88.2224 14.976 87.6344 15.108 86.9864 15.108C86.2184 15.108 85.5404 14.94 84.9524 14.604C84.3644 14.256 83.9084 13.758 83.5844 13.11C83.2604 12.462 83.0984 11.7 83.0984 10.824V4.95603H86.1584V10.41C86.1584 11.082 86.3324 11.604 86.6804 11.976C87.0284 12.348 87.4964 12.534 88.0844 12.534C88.6844 12.534 89.1584 12.348 89.5064 11.976C89.8544 11.604 90.0284 11.082 90.0284 10.41V4.95603H93.1064Z" fill="#F8F9FA"/>
<path d="M94.7053 9.96003C94.7053 8.92803 94.8973 8.02203 95.2813 7.24203C95.6773 6.46203 96.2113 5.86203 96.8833 5.44203C97.5553 5.02203 98.3053 4.81203 99.1333 4.81203C99.7933 4.81203 100.393 4.95003 100.933 5.22603C101.485 5.50203 101.917 5.87403 102.229 6.34203V1.68003H105.307V15H102.229V13.56C101.941 14.04 101.527 14.424 100.987 14.712C100.459 15 99.8413 15.144 99.1333 15.144C98.3053 15.144 97.5553 14.934 96.8833 14.514C96.2113 14.082 95.6773 13.476 95.2813 12.696C94.8973 11.904 94.7053 10.992 94.7053 9.96003ZM102.229 9.97803C102.229 9.21003 102.013 8.60403 101.581 8.16003C101.161 7.71603 100.645 7.49403 100.033 7.49403C99.4213 7.49403 98.8993 7.71603 98.4673 8.16003C98.0473 8.59203 97.8373 9.19203 97.8373 9.96003C97.8373 10.728 98.0473 11.34 98.4673 11.796C98.8993 12.24 99.4213 12.462 100.033 12.462C100.645 12.462 101.161 12.24 101.581 11.796C102.013 11.352 102.229 10.746 102.229 9.97803Z" fill="#F8F9FA"/>
<path d="M109.082 3.91203C108.542 3.91203 108.098 3.75603 107.75 3.44403C107.414 3.12003 107.246 2.72403 107.246 2.25603C107.246 1.77603 107.414 1.38003 107.75 1.06803C108.098 0.744031 108.542 0.582031 109.082 0.582031C109.61 0.582031 110.042 0.744031 110.378 1.06803C110.726 1.38003 110.9 1.77603 110.9 2.25603C110.9 2.72403 110.726 3.12003 110.378 3.44403C110.042 3.75603 109.61 3.91203 109.082 3.91203ZM110.612 4.95603V15H107.534V4.95603H110.612Z" fill="#F8F9FA"/>
<path d="M117.415 15.144C116.431 15.144 115.543 14.934 114.751 14.514C113.971 14.094 113.353 13.494 112.897 12.714C112.453 11.934 112.231 11.022 112.231 9.97803C112.231 8.94603 112.459 8.04003 112.915 7.26003C113.371 6.46803 113.995 5.86203 114.787 5.44203C115.579 5.02203 116.467 4.81203 117.451 4.81203C118.435 4.81203 119.323 5.02203 120.115 5.44203C120.907 5.86203 121.531 6.46803 121.987 7.26003C122.443 8.04003 122.671 8.94603 122.671 9.97803C122.671 11.01 122.437 11.922 121.969 12.714C121.513 13.494 120.883 14.094 120.079 14.514C119.287 14.934 118.399 15.144 117.415 15.144ZM117.415 12.48C118.003 12.48 118.501 12.264 118.909 11.832C119.329 11.4 119.539 10.782 119.539 9.97803C119.539 9.17403 119.335 8.55603 118.927 8.12403C118.531 7.69203 118.039 7.47603 117.451 7.47603C116.851 7.47603 116.353 7.69203 115.957 8.12403C115.561 8.54403 115.363 9.16203 115.363 9.97803C115.363 10.782 115.555 11.4 115.939 11.832C116.335 12.264 116.827 12.48 117.415 12.48Z" fill="#F8F9FA"/>
<path d="M125.744 15.144C125.204 15.144 124.76 14.988 124.412 14.676C124.076 14.352 123.908 13.956 123.908 13.488C123.908 13.008 124.076 12.606 124.412 12.282C124.76 11.958 125.204 11.796 125.744 11.796C126.272 11.796 126.704 11.958 127.04 12.282C127.388 12.606 127.562 13.008 127.562 13.488C127.562 13.956 127.388 14.352 127.04 14.676C126.704 14.988 126.272 15.144 125.744 15.144Z" fill="#F8F9FA"/>
</svg>
