<svg width="65" height="14" viewBox="0 0 65 14" fill="none" xmlns="http://www.w3.org/2000/svg">
<path d="M12.9781 0.363971L8.49611 13H4.64411L0.162109 0.363971H3.43811L6.57011 9.90397L9.72011 0.363971H12.9781Z" fill="#495057"/>
<path d="M17.3425 2.82997V5.38597H21.4645V7.76197H17.3425V10.534H22.0045V13H14.2645V0.363971H22.0045V2.82997H17.3425Z" fill="#495057"/>
<path d="M35.3068 13H32.2288L27.0808 5.20597V13H24.0028V0.363971H27.0808L32.2288 8.19397V0.363971H35.3068V13Z" fill="#495057"/>
<path d="M37.016 6.66397C37.016 5.41597 37.286 4.30597 37.826 3.33397C38.366 2.34997 39.116 1.58797 40.076 1.04797C41.048 0.495971 42.146 0.219971 43.37 0.219971C44.87 0.219971 46.154 0.615971 47.222 1.40797C48.29 2.19997 49.004 3.27997 49.364 4.64797H45.98C45.728 4.11997 45.368 3.71797 44.9 3.44197C44.444 3.16597 43.922 3.02797 43.334 3.02797C42.386 3.02797 41.618 3.35797 41.03 4.01797C40.442 4.67797 40.148 5.55997 40.148 6.66397C40.148 7.76797 40.442 8.64997 41.03 9.30997C41.618 9.96997 42.386 10.3 43.334 10.3C43.922 10.3 44.444 10.162 44.9 9.88597C45.368 9.60997 45.728 9.20797 45.98 8.67997H49.364C49.004 10.048 48.29 11.128 47.222 11.92C46.154 12.7 44.87 13.09 43.37 13.09C42.146 13.09 41.048 12.82 40.076 12.28C39.116 11.728 38.366 10.966 37.826 9.99397C37.286 9.02197 37.016 7.91197 37.016 6.66397Z" fill="#495057"/>
<path d="M54.3269 2.82997V5.38597H58.4489V7.76197H54.3269V10.534H58.9889V13H51.2489V0.363971H58.9889V2.82997H54.3269Z" fill="#495057"/>
<path d="M62.4272 13.144C61.8872 13.144 61.4432 12.988 61.0952 12.676C60.7592 12.352 60.5912 11.956 60.5912 11.488C60.5912 11.008 60.7592 10.606 61.0952 10.282C61.4432 9.95797 61.8872 9.79597 62.4272 9.79597C62.9552 9.79597 63.3872 9.95797 63.7232 10.282C64.0712 10.606 64.2452 11.008 64.2452 11.488C64.2452 11.956 64.0712 12.352 63.7232 12.676C63.3872 12.988 62.9552 13.144 62.4272 13.144Z" fill="#495057"/>
</svg>
