<svg viewBox="0 0 190 190" fill="none" xmlns="http://www.w3.org/2000/svg"><g clip-path="url(#holistic_svg__clip0)" stroke="#302F2C" stroke-miterlimit="10"><path d="M94.951 94.948l-47.72 29.073 14.277 65.464h66.886l14.375-65.464-47.818-29.073z"></path><path d="M94.951 94.948l.098-58.144-60.921-19.69L.685 78.246l46.546 45.774 47.72-29.073zM94.951 94.948l47.72 29.176 46.645-45.67L155.97 17.32 95.049 36.804l-.098 58.144z"></path><path d="M94.951 94.948L142.77 65.98 128.394.516H61.508L47.231 65.979l47.72 28.97z"></path><path d="M94.951 94.948v58.248l60.824 19.587 33.541-61.03-46.547-45.774-47.818 28.97z"></path><path d="M94.951 94.948l-47.72-29.175L.587 111.546 34.03 172.68l60.921-19.484V94.948zM34.128 17.113L61.508.516M128.394.516L155.97 17.32M128.394 189.484l27.381-16.701M34.03 172.68l27.478 16.805M.587 111.546l.097-33.299M189.315 78.454v33.299"></path></g><defs><clipPath id="holistic_svg__clip0"><path fill="#fff" d="M0 0h190v190H0z"></path></clipPath></defs></svg>