<svg viewBox="0 0 190 190" fill="none" xmlns="http://www.w3.org/2000/svg"><path d="M95 67.576c31.162 0 56.424-14.924 56.424-33.333C151.424 15.832 126.162.908 95 .908S38.576 15.833 38.576 34.243c0 18.409 25.262 33.333 56.424 33.333z" stroke="#302F2C" stroke-miterlimit="10"></path><path d="M95 97.273c37.998 0 68.802-19.13 68.802-42.727 0-23.598-30.804-42.727-68.803-42.727-37.998 0-68.803 19.13-68.803 42.727 0 23.597 30.805 42.727 68.803 42.727z" stroke="#302F2C" stroke-miterlimit="10"></path><path d="M95 126.667c44.994 0 81.469-23.2 81.469-51.818 0-28.619-36.475-51.819-81.47-51.819-44.994 0-81.47 23.2-81.47 51.819 0 28.618 36.476 51.818 81.47 51.818z" stroke="#302F2C" stroke-miterlimit="10"></path><path d="M95 156.061c51.99 0 94.136-27.406 94.136-61.212 0-33.807-42.146-61.212-94.136-61.212C43.01 33.637.863 61.042.863 94.849.863 128.655 43.01 156.06 95 156.06z" stroke="#302F2C" stroke-miterlimit="10"></path><path d="M95 166.97c44.994 0 81.469-23.2 81.469-51.818 0-28.619-36.475-51.818-81.47-51.818-44.994 0-81.47 23.2-81.47 51.818S50.006 166.97 95 166.97z" stroke="#302F2C" stroke-miterlimit="10"></path><path d="M95 178.182c37.998 0 68.802-19.13 68.802-42.727 0-23.598-30.804-42.728-68.803-42.728-37.998 0-68.803 19.13-68.803 42.728 0 23.597 30.805 42.727 68.803 42.727z" stroke="#302F2C" stroke-miterlimit="10"></path><path d="M95 188.788c31.162 0 56.424-14.924 56.424-33.333 0-18.41-25.262-33.334-56.424-33.334s-56.424 14.924-56.424 33.334c0 18.409 25.262 33.333 56.424 33.333z" stroke="#302F2C" stroke-miterlimit="10"></path></svg>