<svg viewBox="0 0 192 192" fill="none" xmlns="http://www.w3.org/2000/svg"><path d="M64.502 158.996c17.396 0 31.498-14.102 31.498-31.498S81.898 96 64.502 96c-17.395 0-31.497 14.102-31.497 31.498s14.101 31.498 31.497 31.498z" stroke="#302F2C" stroke-miterlimit="10"></path><path d="M95.98 95.977l-31.528 31.527 31.528 31.527 31.527-31.527L95.98 95.977z" stroke="#302F2C" stroke-miterlimit="10"></path><path d="M96 190.578c17.396 0 31.498-14.102 31.498-31.498S113.396 127.582 96 127.582s-31.498 14.102-31.498 31.498S78.604 190.578 96 190.578zM96 64.418c17.396 0 31.498-14.102 31.498-31.498S113.396 1.422 96 1.422 64.502 15.524 64.502 32.92 78.604 64.418 96 64.418z" stroke="#302F2C" stroke-miterlimit="10"></path><path d="M127.498 158.996c17.396 0 31.498-14.102 31.498-31.498S144.894 96 127.498 96 96 110.102 96 127.498s14.102 31.498 31.498 31.498z" stroke="#302F2C" stroke-miterlimit="10"></path><path d="M159.08 127.498c17.396 0 31.498-14.102 31.498-31.498s-14.102-31.498-31.498-31.498S127.582 78.604 127.582 96s14.102 31.498 31.498 31.498zM32.92 127.498c17.396 0 31.498-14.102 31.498-31.498S50.316 64.502 32.92 64.502 1.422 78.604 1.422 96s14.102 31.498 31.498 31.498z" stroke="#302F2C" stroke-miterlimit="10"></path><path d="M64.494 64.451L32.967 95.98l31.527 31.527L96.02 95.978 64.494 64.451z" stroke="#302F2C" stroke-miterlimit="10"></path><path d="M64.494 64.451L32.967 95.98l31.527 31.527L96.02 95.978 64.494 64.451z" stroke="#302F2C" stroke-miterlimit="10"></path><path d="M96 64.47L64.471 95.999 96 127.525l31.527-31.527-31.528-31.527z" stroke="#302F2C" stroke-miterlimit="10"></path><path d="M96 64.47L64.471 95.999 96 127.525l31.527-31.527-31.528-31.527z" stroke="#302F2C" stroke-miterlimit="10"></path><path d="M127.505 64.49L95.978 96.019l31.527 31.527 31.527-31.527-31.527-31.527z" stroke="#302F2C" stroke-miterlimit="10"></path><path d="M127.505 64.49L95.978 96.019l31.527 31.527 31.527-31.527-31.527-31.527zM64.502 96C81.898 96 96 81.898 96 64.502S81.898 33.004 64.502 33.004c-17.395 0-31.497 14.102-31.497 31.498S47.105 96 64.501 96z" stroke="#302F2C" stroke-miterlimit="10"></path><path d="M96.02 32.965L64.491 64.493 96.019 96.02l31.527-31.527-31.527-31.528z" stroke="#302F2C" stroke-miterlimit="10"></path><path d="M127.498 96c17.396 0 31.498-14.102 31.498-31.498s-14.102-31.498-31.498-31.498S96 47.106 96 64.502 110.102 96 127.498 96z" stroke="#302F2C" stroke-miterlimit="10"></path></svg>