<svg viewBox=" 0 0 192 192" fill="none" xmlns="http://www.w3.org/2000/svg">
                    <path
                        d="M14.514 190.866c7.464 0 13.514-6.05 13.514-13.514 0-7.464-6.05-13.514-13.514-13.514C7.05 163.838 1 169.888 1 177.352c0 7.464 6.05 13.514 13.514 13.514z"
                        stroke="#302F2C" stroke-miterlimit="10"></path>
                    <path
                        d="M26.155 190.866c13.893 0 25.155-11.262 25.155-25.155 0-13.892-11.262-25.155-25.155-25.155S1 151.819 1 165.711c0 13.893 11.262 25.155 25.155 25.155z"
                        stroke="#302F2C" stroke-miterlimit="10"></path>
                    <path
                        d="M37.796 190.866c20.322 0 36.795-16.474 36.795-36.796 0-20.321-16.473-36.795-36.795-36.795C17.474 117.275 1 133.749 1 154.07c0 20.322 16.474 36.796 36.796 36.796z"
                        stroke="#302F2C" stroke-miterlimit="10"></path>
                    <path
                        d="M49.437 190.866c26.75 0 48.436-21.686 48.436-48.436 0-26.751-21.686-48.437-48.436-48.437C22.686 93.993 1 115.679 1 142.43c0 26.75 21.686 48.436 48.437 48.436z"
                        stroke="#302F2C" stroke-miterlimit="10"></path>
                    <path
                        d="M61.078 190.866c33.18 0 60.077-26.897 60.077-60.077S94.257 70.711 61.077 70.711C27.898 70.711 1 97.61 1 130.79c0 33.18 26.898 60.077 60.078 60.077z"
                        stroke="#302F2C" stroke-miterlimit="10"></path>
                    <path
                        d="M72.718 190.866c39.609 0 71.719-32.109 71.719-71.718 0-39.61-32.11-71.718-71.719-71.718C33.11 47.43 1 79.539 1 119.148s32.11 71.718 71.718 71.718z"
                        stroke="#302F2C" stroke-miterlimit="10"></path>
                    <path
                        d="M84.36 191c46.037 0 83.358-37.321 83.358-83.359s-37.321-83.36-83.359-83.36S1 61.604 1 107.642 38.321 191 84.36 191z"
                        stroke="#302F2C" stroke-miterlimit="10"></path>
                    <path d="M96 191c52.467 0 95-42.533 95-95S148.467 1 96 1 1 43.533 1 96s42.533 95 95 95z"
                        stroke="#302F2C" stroke-miterlimit="10"></path></svg>