<svg width="193" height="193" viewBox="0 0 193 193" fill="none" xmlns="http://www.w3.org/2000/svg"
                    class="Hero_svg__cDKww Hero_active__1qnR8" style="opacity: 1;">
                    <path
                        d="M96.539 118.897C129.262 118.897 155.79 92.3693 155.79 59.6459C155.79 26.9226 129.262 0.39502 96.539 0.39502C63.8156 0.39502 37.2881 26.9226 37.2881 59.6459C37.2881 92.3693 63.8156 118.897 96.539 118.897Z"
                        stroke="black" stroke-width="0.15"></path>
                    <path
                        d="M78.0537 123.874C110.777 123.874 137.305 97.3464 137.305 64.623C137.305 31.8996 110.777 5.37207 78.0537 5.37207C45.3303 5.37207 18.8027 31.8996 18.8027 64.623C18.8027 97.3464 45.3303 123.874 78.0537 123.874Z"
                        stroke="black" stroke-width="0.15"></path>
                    <path
                        d="M64.623 137.304C97.3464 137.304 123.874 110.777 123.874 78.0532C123.874 45.3298 97.3464 18.8022 64.623 18.8022C31.8996 18.8022 5.37207 45.3298 5.37207 78.0532C5.37207 110.777 31.8996 137.304 64.623 137.304Z"
                        stroke="black" stroke-width="0.15"></path>
                    <path
                        d="M59.6455 155.79C92.3688 155.79 118.896 129.263 118.896 96.5395C118.896 63.8161 92.3688 37.2886 59.6455 37.2886C26.9221 37.2886 0.394531 63.8161 0.394531 96.5395C0.394531 129.263 26.9221 155.79 59.6455 155.79Z"
                        stroke="black" stroke-width="0.15"></path>
                    <path
                        d="M64.623 174.198C97.3464 174.198 123.874 147.67 123.874 114.947C123.874 82.2233 97.3464 55.6958 64.623 55.6958C31.8996 55.6958 5.37207 82.2233 5.37207 114.947C5.37207 147.67 31.8996 174.198 64.623 174.198Z"
                        stroke="black" stroke-width="0.15"></path>
                    <path
                        d="M78.0537 187.707C110.777 187.707 137.305 161.179 137.305 128.456C137.305 95.7326 110.777 69.2051 78.0537 69.2051C45.3303 69.2051 18.8027 95.7326 18.8027 128.456C18.8027 161.179 45.3303 187.707 78.0537 187.707Z"
                        stroke="black" stroke-width="0.15"></path>
                    <path
                        d="M96.539 192.605C129.262 192.605 155.79 166.077 155.79 133.354C155.79 100.631 129.262 74.103 96.539 74.103C63.8156 74.103 37.2881 100.631 37.2881 133.354C37.2881 166.077 63.8156 192.605 96.539 192.605Z"
                        stroke="black" stroke-width="0.15"></path>
                    <path
                        d="M114.947 187.707C147.671 187.707 174.198 161.179 174.198 128.456C174.198 95.7326 147.671 69.2051 114.947 69.2051C82.2238 69.2051 55.6963 95.7326 55.6963 128.456C55.6963 161.179 82.2238 187.707 114.947 187.707Z"
                        stroke="black" stroke-width="0.15"></path>
                    <path
                        d="M128.456 174.198C161.179 174.198 187.707 147.67 187.707 114.947C187.707 82.2233 161.179 55.6958 128.456 55.6958C95.7326 55.6958 69.2051 82.2233 69.2051 114.947C69.2051 147.67 95.7326 174.198 128.456 174.198Z"
                        stroke="black" stroke-width="0.15"></path>
                    <path
                        d="M133.354 155.79C166.078 155.79 192.605 129.263 192.605 96.5395C192.605 63.8161 166.078 37.2886 133.354 37.2886C100.631 37.2886 74.1035 63.8161 74.1035 96.5395C74.1035 129.263 100.631 155.79 133.354 155.79Z"
                        stroke="black" stroke-width="0.15"></path>
                    <path
                        d="M128.456 137.304C161.179 137.304 187.707 110.777 187.707 78.0532C187.707 45.3298 161.179 18.8022 128.456 18.8022C95.7326 18.8022 69.2051 45.3298 69.2051 78.0532C69.2051 110.777 95.7326 137.304 128.456 137.304Z"
                        stroke="black" stroke-width="0.15"></path>
                    <path
                        d="M114.947 123.874C147.671 123.874 174.198 97.3464 174.198 64.623C174.198 31.8996 147.671 5.37207 114.947 5.37207C82.2238 5.37207 55.6963 31.8996 55.6963 64.623C55.6963 97.3464 82.2238 123.874 114.947 123.874Z"
                        stroke="black" stroke-width="0.15"></path>
                </svg>